<?xml version="1.0" encoding="UTF-8"?>
<svg xmlns="http://www.w3.org/2000/svg" xmlns:xlink="http://www.w3.org/1999/xlink" width="256pt" height="256pt" viewBox="0 0 256 256" version="1.1">
<g id="surface1">
<path style=" stroke:none;fill-rule:nonzero;fill:rgb(16.078431%,56.862745%,88.627451%);fill-opacity:1;" d="M 127.976562 0.03125 C 93.605469 0.03125 62.03125 13.128906 37.671875 37.484375 C 13.316406 61.839844 0.21875 93.417969 0.21875 127.789062 C 0.21875 162.160156 13.316406 193.734375 37.671875 218.089844 C 58.125 238.542969 83.6875 251.058594 112.617188 254.78125 C 123.976562 256.246094 141.390625 255.503906 153.804688 253.03125 C 198.496094 244.125 236.679688 209.507812 250.0625 165.765625 C 264.101562 119.871094 252.058594 71.261719 218.28125 37.484375 C 193.921875 13.128906 162.347656 0.03125 127.976562 0.03125 Z M 126.8125 10.050781 C 145.300781 9.882812 163.777344 14.070312 180.617188 22.507812 C 203.695312 34.070312 221.695312 52.066406 233.257812 75.148438 C 249.878906 108.324219 249.878906 147.253906 233.257812 180.429688 C 227.457031 192.003906 221.679688 200.144531 212.476562 209.703125 C 193.003906 229.929688 167.222656 242.261719 138.546875 245.0625 C 117.160156 247.152344 95.089844 242.964844 75.335938 233.066406 C 63.757812 227.269531 55.621094 221.492188 46.0625 212.289062 C 9.191406 176.796875 -0.304688 121.058594 22.695312 75.148438 C 36.523438 47.550781 60.273438 26.671875 89.363281 16.546875 C 101.507812 12.320312 114.164062 10.167969 126.8125 10.050781 Z M 126.8125 10.050781 "/>
<path style=" stroke:none;fill-rule:nonzero;fill:rgb(16.078431%,56.862745%,88.627451%);fill-opacity:1;" d="M 130.136719 197.757812 C 129.742188 197.757812 129.347656 197.683594 128.96875 197.53125 L 69.550781 173.644531 C 68.367188 173.171875 67.589844 172.019531 67.589844 170.746094 L 67.589844 152.929688 C 67.589844 151.203125 68.992188 152.929688 70.71875 152.929688 C 72.441406 152.929688 73.84375 154.328125 73.84375 156.058594 L 73.84375 168.632812 L 127.007812 190.003906 L 127.007812 137.476562 L 70.75 114.890625 C 69.148438 114.246094 68.371094 112.425781 69.011719 110.824219 C 69.652344 109.21875 71.472656 108.441406 73.082031 109.082031 L 131.296875 132.460938 C 132.484375 132.9375 133.261719 134.085938 133.261719 135.363281 L 133.261719 194.628906 C 133.261719 195.667969 132.746094 196.640625 131.886719 197.21875 C 131.359375 197.574219 130.75 197.757812 130.136719 197.757812 Z M 130.136719 197.757812 "/>
<path style=" stroke:none;fill-rule:nonzero;fill:rgb(16.078431%,56.862745%,88.627451%);fill-opacity:1;" d="M 130.136719 197.757812 C 129.507812 197.757812 128.890625 197.570312 128.363281 197.203125 C 127.515625 196.621094 127.007812 195.660156 127.007812 194.628906 L 127.007812 135.363281 C 127.007812 134.066406 127.808594 132.902344 129.019531 132.4375 L 191.5625 108.550781 C 192.523438 108.179688 193.601562 108.316406 194.453125 108.894531 C 195.300781 109.480469 195.808594 110.445312 195.808594 111.472656 L 195.808594 170.746094 C 195.808594 172.042969 195.007812 173.203125 193.792969 173.667969 L 131.25 197.554688 C 130.890625 197.691406 130.511719 197.757812 130.136719 197.757812 Z M 133.261719 137.515625 L 133.261719 190.089844 L 189.554688 168.59375 L 189.554688 116.015625 Z M 133.261719 137.515625 "/>
<path style=" stroke:none;fill-rule:nonzero;fill:rgb(16.078431%,56.862745%,88.627451%);fill-opacity:1;" d="M 193.03125 114.601562 C 192.652344 114.601562 192.265625 114.535156 191.890625 114.386719 L 130.269531 90.296875 L 75.4375 113.175781 C 73.84375 113.839844 72.019531 113.085938 71.351562 111.496094 C 70.6875 109.898438 71.441406 108.066406 73.035156 107.40625 L 129.03125 84.039062 C 129.785156 83.726562 130.621094 83.71875 131.375 84.015625 L 194.175781 108.566406 C 195.785156 109.195312 196.578125 111.007812 195.949219 112.613281 C 195.464844 113.847656 194.28125 114.601562 193.03125 114.601562 Z M 193.03125 114.601562 "/>
<path style=" stroke:none;fill-rule:nonzero;fill:rgb(16.078431%,56.862745%,88.627451%);fill-opacity:1;" d="M 127.394531 41.808594 L 68 65.488281 C 66.808594 65.960938 66.027344 67.121094 66.027344 68.398438 L 66.027344 110.175781 L 44.007812 139.859375 C 43.4375 140.621094 43.25 141.597656 43.488281 142.511719 C 43.726562 143.433594 44.375 144.1875 45.234375 144.574219 L 45.234375 144.582031 L 103.914062 170.863281 C 104.332031 171.054688 104.773438 171.144531 105.203125 171.144531 C 106.183594 171.144531 107.148438 170.667969 107.742188 169.832031 L 131.898438 136.074219 L 126.8125 132.433594 L 104.144531 164.121094 L 51.347656 140.457031 L 71.664062 113.078125 C 72.066406 112.539062 72.28125 111.882812 72.28125 111.207031 L 72.28125 70.515625 L 125.445312 49.324219 L 125.445312 88.824219 L 131.699219 88.824219 L 131.699219 44.703125 C 131.699219 43.671875 131.1875 42.695312 130.332031 42.113281 L 130.324219 42.113281 L 130.316406 42.109375 C 129.46875 41.542969 128.375 41.402344 127.390625 41.808594 Z M 128.578125 44.703125 L 128.582031 44.703125 C 128.585938 44.707031 128.578125 44.707031 128.582031 44.710938 Z M 128.578125 44.703125 "/>
<path style=" stroke:none;fill-rule:nonzero;fill:rgb(16.078431%,56.862745%,88.627451%);fill-opacity:1;" d="M 130.089844 128.75 C 129.902344 128.75 129.710938 128.714844 129.53125 128.644531 L 88.789062 113.019531 C 88.195312 112.792969 87.796875 112.226562 87.785156 111.589844 C 87.777344 110.949219 88.152344 110.371094 88.738281 110.121094 L 129.476562 92.804688 C 129.859375 92.644531 130.285156 92.640625 130.667969 92.789062 L 172.273438 109.261719 C 172.871094 109.496094 173.261719 110.074219 173.261719 110.714844 C 173.261719 111.359375 172.871094 111.9375 172.273438 112.171875 L 130.667969 128.636719 C 130.480469 128.710938 130.289062 128.75 130.089844 128.75 Z M 93.523438 111.484375 L 130.082031 125.503906 L 167.453125 110.714844 L 130.113281 95.933594 Z M 93.523438 111.484375 "/>
</g>
</svg>
